HIERARCHY
ROOT Hips
{
	OFFSET 0.0000 0.0000 0.0000
	CHANNELS 6 Xposition Yposition Zposition Zrotation Xrotation Yrotation
	JOINT Ab
	{
		OFFSET -0.0000 8.0846 -0.0000
		CHANNELS 3 Zrotation Xrotation Yrotation
		JOINT Chest
		{
			OFFSET -0.0000 25.0068 -0.0000
			CHANNELS 3 Zrotation Xrotation Yrotation
			JOINT Neck
			{
				OFFSET -0.0000 25.0068 0.0000
				CHANNELS 3 Zrotation Xrotation Yrotation
				JOINT Head
				{
					OFFSET -0.0000 10.7556 0.0000
					CHANNELS 3 Zrotation Xrotation Yrotation
					End Site
					{
						OFFSET -0.0000 16.6222 0.0000
					}
				}
			}
			JOINT LeftCollar
			{
				OFFSET -0.0000 25.0068 0.0000
				CHANNELS 3 Zrotation Xrotation Yrotation
				JOINT LeftShoulder
				{
					OFFSET 19.5556 -0.0000 0.0000
					CHANNELS 3 Zrotation Xrotation Yrotation
					JOINT LeftElbow
					{
						OFFSET 27.1828 0.0000 0.0000
						CHANNELS 3 Zrotation Xrotation Yrotation
						JOINT LeftWrist
						{
							OFFSET 23.3157 0.0000 0.0000
							CHANNELS 3 Zrotation Xrotation Yrotation
							End Site
							{
								OFFSET 0.0000 -14.6667 0.0000
							}
						}
					}
				}
			}
			JOINT RightCollar
			{
				OFFSET -0.0000 25.0068 0.0000
				CHANNELS 3 Zrotation Xrotation Yrotation
				JOINT RightShoulder
				{
					OFFSET -19.5556 0.0000 0.0000
					CHANNELS 3 Zrotation Xrotation Yrotation
					JOINT RightElbow
					{
						OFFSET -27.1828 0.0000 0.0000
						CHANNELS 3 Zrotation Xrotation Yrotation
						JOINT RightWrist
						{
							OFFSET -23.3157 0.0000 0.0000
							CHANNELS 3 Zrotation Xrotation Yrotation
							End Site
							{
								OFFSET -0.0000 -14.6667 0.0000
							}
						}
					}
				}
			}
		}
	}
	JOINT LeftHip
	{
		OFFSET 11.7333 0.0000 0.0000
		CHANNELS 3 Zrotation Xrotation Yrotation
		JOINT LeftKnee
		{
			OFFSET -0.0000 -40.8688 0.0000
			CHANNELS 3 Zrotation Xrotation Yrotation
			JOINT LeftAnkle
			{
				OFFSET -0.0000 -44.4337 0.0000
				CHANNELS 3 Zrotation Xrotation Yrotation
				End Site
				{
					OFFSET -0.0000 -4.8889 16.6222
				}
			}
		}
	}
	JOINT RightHip
	{
		OFFSET -11.7333 0.0000 0.0000
		CHANNELS 3 Zrotation Xrotation Yrotation
		JOINT RightKnee
		{
			OFFSET -0.0000 -40.8688 0.0000
			CHANNELS 3 Zrotation Xrotation Yrotation
			JOINT RightAnkle
			{
				OFFSET -0.0000 -44.4337 0.0000
				CHANNELS 3 Zrotation Xrotation Yrotation
				End Site
				{
					OFFSET -0.0000 -4.8889 16.6222
				}
			}
		}
	}
}
MOTION
Frames: 19
Frame Time: 0.010000
-4.3435 87.8132 70.0271 2.2556 359.5935 176.8442 358.4993 3.4349 357.1105 0.6354 10.6803 357.0053 8.2826 338.8292 3.5086 356.6872 10.6484 2.2630 340.9946 358.5413 8.7958 318.4591 42.3539 335.3652 34.6229 349.2360 327.9834 82.8700 357.3145 2.8627 19.3712 358.8580 353.2932 65.8118 33.1177 359.6152 343.5382 355.8221 28.3353 279.5258 353.4701 29.2552 358.7083 1.8528 356.7460 357.4837 11.1683 358.5394 356.7880 349.3038 19.0132 2.3469 330.5892 1.2002 3.1899 34.4428 356.9240 354.7228 350.0159 342.4546 
-4.3287 87.6656 69.2232 2.1065 359.4976 176.9984 358.4198 3.2915 357.0072 0.6529 10.8548 356.8995 8.2733 338.7580 3.4821 356.7424 10.5718 2.2259 340.9642 358.5514 8.7440 319.7208 42.7289 334.2358 35.4458 349.1964 328.3514 83.1726 357.2065 3.7765 19.3282 358.8409 353.2096 66.2037 32.5724 359.0719 343.7030 355.8889 28.0813 279.5568 353.8377 29.7097 358.5266 2.3985 356.6270 357.5173 10.9495 358.5374 356.7996 349.0629 19.0308 2.2955 330.2781 1.1524 2.7583 32.0395 357.0862 350.9626 352.7588 336.1747 
-4.3133 87.5083 68.4043 1.9458 359.4593 177.0664 358.3140 3.2107 356.9637 0.6761 10.9964 356.8506 8.3156 338.7917 3.5447 356.7642 10.4335 2.2884 340.8334 358.5052 9.0238 321.6962 43.8921 332.4441 36.8155 349.0045 329.4068 83.1095 356.8588 5.0498 19.2929 358.8544 353.2420 66.5028 32.0803 358.5236 343.8921 355.9740 27.8377 279.7971 353.8766 30.1853 358.3442 2.9949 356.6382 357.5400 10.7831 358.4429 356.9070 348.8211 19.0802 2.2996 330.0677 1.1656 2.2156 29.7879 357.6565 353.1780 352.8837 335.2792 
-4.2956 87.3382 67.5667 1.8250 359.4905 177.1742 358.2762 3.1779 356.9079 0.6744 11.1699 356.7933 8.3373 338.7846 3.5662 356.7447 10.3442 2.3013 340.6621 358.4410 9.2514 323.7888 44.9720 330.7282 38.0937 348.9165 330.3016 83.1078 356.7108 6.5175 19.2425 358.8478 353.2163 66.7773 31.7213 358.0309 344.0549 356.0467 27.6372 279.9412 354.1209 30.6575 358.2239 3.6151 356.6447 357.5262 10.7302 358.2148 357.0456 348.5133 19.2065 2.3070 330.0088 1.2273 1.7066 27.4853 358.1452 354.8866 352.6921 335.7897 
-4.2786 87.2486 67.1234 1.7547 359.5062 177.2786 358.2862 3.1913 356.8595 0.6453 11.2223 356.7476 8.3435 338.7845 3.5679 356.7578 10.3241 2.2988 340.5783 358.4076 9.3047 324.5671 45.2375 330.1873 38.5371 349.0936 330.6166 83.2826 356.7873 7.2744 19.2290 358.8430 353.2205 66.9118 31.5746 357.7733 344.1315 356.0947 27.5338 279.9912 354.3495 30.8811 358.1557 3.9195 356.6071 357.5227 10.7352 358.0952 357.1087 348.3298 19.2674 2.2856 329.9609 1.2684 1.4386 26.2657 358.4975 355.3654 352.1198 339.5202 
-4.2468 87.0979 66.3934 1.6119 359.5430 177.4041 358.2397 3.1242 356.8049 0.5821 11.4107 356.6980 8.4080 338.7674 3.5630 356.7027 10.3522 2.2824 340.5462 358.3985 9.3196 325.5914 45.4250 329.3296 39.0413 349.1688 330.9556 83.5770 356.8446 7.8836 19.2441 358.8448 353.2009 67.0694 31.4084 357.3957 344.2345 356.1512 27.3902 280.1141 354.4365 31.1105 358.0413 4.4169 356.5279 357.4846 10.7832 357.9795 357.1609 347.9933 19.3135 2.2185 329.9278 1.5314 1.2117 24.6239 358.6767 355.7957 351.4218 343.2631 
-4.1951 86.7902 64.9644 1.3605 359.6184 177.6283 358.1546 2.9872 356.6769 0.4826 11.7696 356.5788 8.5078 338.7449 3.5303 356.5748 10.4086 2.2335 340.4668 358.3988 9.2776 327.8937 45.8209 327.4036 40.0846 349.0445 331.6551 83.9833 356.7225 8.8384 19.2416 358.8299 353.0447 67.4169 30.9803 356.7236 344.4830 356.2434 27.1275 280.4221 354.6405 31.7175 357.8576 5.3926 356.4566 357.4072 10.8963 357.7187 357.2022 347.3759 19.3544 2.0991 329.9314 2.0318 0.8070 21.4745 358.9428 356.0935 351.5237 341.6616 
-4.1383 86.5813 64.0766 1.2181 359.6965 177.8333 358.0810 2.9856 356.5988 0.5140 11.9052 356.4948 8.5156 338.8113 3.5492 356.6148 10.4180 2.2695 340.3431 358.3939 9.3190 329.0962 45.9942 326.4816 40.7437 349.0825 332.0752 84.0941 356.6036 9.6391 19.1958 358.8157 353.0139 67.5808 30.7970 356.3163 344.6675 356.3081 27.0112 280.5688 354.7271 31.8694 357.7913 5.9615 356.4961 357.3498 11.1004 357.4789 357.0366 347.0280 19.2873 1.9895 329.9841 2.3358 0.5895 19.7665 359.0331 357.2807 351.6141 338.0633 
-4.0855 86.3702 63.1931 1.0788 359.7754 178.0625 357.9827 3.0383 356.5642 0.6084 11.9726 356.4461 8.5487 338.8829 3.5190 356.4856 10.4218 2.2407 340.1400 358.3641 9.3455 330.5883 46.4099 325.4038 41.4703 349.0997 332.7249 84.1511 356.3387 10.5802 19.1371 358.8040 352.9052 67.7163 30.5458 355.9388 344.8152 356.3533 26.9466 280.9299 354.7933 32.1130 357.7316 6.4755 356.4798 357.2846 11.3841 357.2414 356.9956 346.5865 19.3128 1.8121 330.0252 2.6343 0.4924 18.2826 359.0270 357.0947 351.3619 338.0140 
-4.0205 86.1655 62.2887 0.9393 359.8410 178.2942 357.8644 3.0365 356.5128 0.7593 12.0795 356.3749 8.5394 338.9463 3.4640 356.3963 10.4032 2.2018 339.9845 358.3649 9.2631 331.5920 46.5177 324.7245 41.9965 349.1722 333.1251 84.0504 356.1506 11.0839 19.0667 358.8063 352.7570 67.7799 30.2184 355.6539 345.1415 356.4681 26.8139 280.9870 354.8220 32.8498 357.6999 6.9837 356.5015 357.2205 11.6972 356.8251 357.2406 346.2857 19.3114 1.5643 330.0763 3.0004 0.5915 17.0209 358.8377 357.0691 351.1392 338.1902 
-3.9498 85.9647 61.3695 0.8014 359.9325 178.5487 357.8270 3.0229 356.4444 0.7823 12.2624 356.3024 8.5938 338.9474 3.4343 356.2864 10.4218 2.1726 339.9490 358.3823 9.0741 331.9730 46.1932 324.5560 42.2357 349.2272 333.0003 84.1873 356.3270 11.2102 19.0400 358.7863 352.6323 67.8864 30.0018 355.3700 345.2717 356.4922 26.8054 281.2387 354.9195 33.1521 357.6894 7.5182 356.2911 357.0968 12.0007 356.9990 357.1952 345.9856 19.0043 1.3698 330.0319 3.2258 0.5439 16.3185 358.7504 357.3384 350.8149 338.2893 
-3.8729 85.7634 60.4531 0.7125 0.0067 178.7861 357.8163 3.0466 356.4064 0.8652 12.3652 356.2541 8.6422 338.9825 3.4208 356.1709 10.4142 2.1668 339.8866 358.3988 8.8944 332.1837 45.8360 324.5284 42.2759 349.2573 332.7241 84.7535 356.6525 11.3799 18.9932 358.7688 352.5246 67.9624 29.7906 355.0682 345.4405 356.5386 26.8053 281.4385 354.8574 33.4559 357.7403 7.9482 356.5023 357.0799 12.5241 356.4133 356.9963 345.5985 18.9516 1.2006 329.9352 3.5578 0.5960 15.9444 358.5547 357.4201 350.4800 338.4226 
-3.7700 85.5732 59.5036 0.6393 0.1206 179.0171 357.7791 3.0362 356.3834 0.9993 12.5861 356.2133 8.7601 338.9253 3.4249 355.9418 10.4582 2.1680 339.7914 358.3926 8.9366 333.2045 46.0059 323.7268 42.5949 349.2113 333.0592 84.8747 356.6441 11.6542 18.9159 358.7539 352.4055 68.0877 29.6185 354.8200 345.5516 356.5596 26.7998 281.5855 354.8758 33.7298 357.8459 8.4449 356.6251 357.0253 13.0248 355.9727 356.7639 345.2986 18.8385 1.0686 329.8890 4.0207 0.6968 15.8770 358.2591 357.6112 350.0681 338.6049 
-3.6707 85.3918 58.5509 0.5588 0.1797 179.2380 357.7587 3.0032 356.3596 1.1376 12.7406 356.1730 8.7744 338.9256 3.4001 355.8395 10.4436 2.1511 339.6715 358.3949 8.9751 334.0622 46.1123 323.1323 42.8591 349.1974 333.2649 84.7742 356.5974 11.8876 18.8499 358.7386 352.2796 68.1946 29.4702 354.5906 345.6231 356.5690 26.7999 281.6421 355.0735 33.8927 357.9374 8.8809 356.6072 356.9702 13.5314 355.6338 356.6976 345.0790 18.7786 0.9471 329.7085 4.4202 0.7992 16.2493 358.1700 357.7722 349.5854 338.4929 
-3.5590 85.2207 57.5827 0.4974 0.2682 179.4271 357.7298 3.0543 356.3550 1.3378 12.7745 356.1436 8.6971 339.0015 3.3463 355.8347 10.3819 2.1186 339.5462 358.3906 8.9274 334.3105 45.9959 323.1106 42.9715 349.2112 333.1550 84.8314 356.5825 12.0251 18.7888 358.7149 352.1704 68.2906 29.3503 354.3156 345.6522 356.5710 26.7698 281.6997 355.1145 33.9555 358.0493 9.3395 356.5942 356.9309 14.0695 355.3078 356.7338 344.9464 18.6475 0.8824 329.5183 4.7259 0.8820 16.9895 358.3005 357.7383 349.1770 338.1938 
-3.4309 85.0552 56.5992 0.4553 0.3617 179.6590 357.7383 3.1120 356.3025 1.5272 12.8051 356.0686 8.6624 339.0202 3.3092 355.7744 10.3814 2.0972 339.4611 358.3550 8.9460 334.6073 46.1097 322.9765 43.2048 349.1558 333.1846 84.9437 356.5545 12.1543 18.7613 358.7033 352.0680 68.3403 29.2735 354.0828 345.6946 356.5816 26.7209 281.7129 355.0814 34.0090 358.2282 9.7600 356.4135 356.8310 14.6880 355.0945 356.8599 344.9175 18.4768 0.8361 329.3466 4.9433 0.9870 17.9662 358.3842 357.4998 348.8209 337.8736 
-3.3060 84.8953 55.6501 0.4502 0.3011 179.8809 357.9100 3.0514 356.1867 1.5532 12.7621 355.9564 8.6435 339.0375 3.3312 355.7638 10.4189 2.1334 339.4140 358.3355 9.0991 334.8448 46.2511 322.9061 43.3373 349.1377 333.1850 85.1779 356.6962 12.1843 18.7905 358.6811 352.0274 68.3416 29.2055 353.8622 345.7532 356.5795 26.7253 281.7550 355.3225 33.9965 358.4337 9.9928 356.1894 356.7294 15.3177 354.9654 356.6507 344.7483 18.3024 0.8445 329.0090 4.9984 1.0823 19.1618 358.4785 357.3390 348.5109 337.5276 
-3.1479 84.7735 54.8159 0.4261 0.2979 180.0712 357.9400 2.9682 356.1843 1.6971 12.8215 355.9388 8.6111 339.0605 3.3313 355.7351 10.4073 2.1441 339.3880 358.3516 9.0924 334.4201 46.1545 323.4148 43.3043 349.1044 332.9014 85.2406 356.7528 11.9866 18.7818 358.6861 351.9907 68.3023 29.1708 353.7663 345.8086 356.6307 26.6498 281.7564 355.2679 34.0739 358.5933 10.3105 356.1440 356.6810 15.7624 354.7951 356.0580 344.4078 18.0660 0.8874 328.8933 5.1122 1.1899 20.1360 358.4927 357.1987 348.1664 337.1095 
-2.9833 84.6535 53.9677 0.4007 0.2623 180.2856 358.0039 2.8589 356.1511 1.8072 12.8572 355.8955 8.5824 339.0555 3.3179 355.7259 10.4212 2.1372 339.3391 358.3337 9.2274 334.5566 46.4908 323.3726 43.5865 348.9964 332.9250 85.1701 356.6886 12.0681 18.7788 358.6808 351.9356 68.3079 29.1108 353.6364 345.8289 356.6416 26.6008 281.7896 355.1817 34.1216 358.7700 10.5716 355.9838 356.6029 16.2371 354.7414 355.9553 344.2381 17.9458 0.9152 328.7938 5.1351 1.3066 21.2063 358.7716 357.2470 347.8749 336.5191 
